<svg version="1.1" xmlns="http://www.w3.org/2000/svg" viewBox="-268.2879974365234 -1508.7360565185547 4194.048211669921 2473.728094482422"><desc>Created with Snap</desc><defs></defs><g><g transform="matrix(58.104,0,0,58.104,1759.2321,-1200.6063)"><g display="none"><rect x="-331.365" y="-102.667" display="inline" fill="#c7d3d4" width="473.333" height="236" style=""></rect></g><g display="none"><g display="inline"><g><path d="M30,1.984v28H2v-28H30 M32-0.016H0v32h32V-0.016L32-0.016z" fill="#c7d3d4" style=""></path></g></g><g display="inline"><g><polygon fill="#c7d3d4" points="10.918,9.09 15.398,16.831 6.439,16.831    " style=""></polygon></g><g><polygon fill="#c7d3d4" points="21.082,5.59 25.561,13.331 16.602,13.331    " style=""></polygon></g><g><polygon fill="#c7d3d4" points="10.918,18.669 15.398,26.41 6.439,26.41    " style=""></polygon></g><g><polygon points="21.082,15.169 25.561,22.91 16.602,22.91    " fill="#c7d3d4" style=""></polygon></g></g></g><g display="none"><g display="inline"><path fill="#c7d3d4" d="M31,0.984v30H1v-30H31 M32-0.016H0v32h32V-0.016L32-0.016z" style=""></path></g><g display="inline"><path fill="#c7d3d4" d="M10.918,11.087l2.745,4.744h-5.49L10.918,11.087 M10.918,9.09l-4.479,7.741h8.958L10.918,9.09L10.918,9.09    z" style=""></path></g><g display="inline"><path fill="#c7d3d4" d="M21.082,7.587l2.745,4.744h-5.49L21.082,7.587 M21.082,5.59l-4.479,7.741h8.958L21.082,5.59L21.082,5.59z" style=""></path></g><g display="inline"><path fill="#c7d3d4" d="M10.918,20.666l2.745,4.744h-5.49L10.918,20.666 M10.918,18.669L6.439,26.41h8.958L10.918,18.669    L10.918,18.669z" style=""></path></g><g display="inline"><path fill="#c7d3d4" d="M21.082,17.166l2.745,4.744h-5.49L21.082,17.166 M21.082,15.169l-4.479,7.741h8.958L21.082,15.169    L21.082,15.169z" style=""></path></g></g><g display="none"><g display="inline"><g><rect x="0.5" y="0.484" fill="#c7d3d4" width="31" height="31" style=""></rect></g><g><g><path d="M31,0.984v30H1v-30H31 M32-0.016H0v32h32V-0.016L32-0.016z" fill="#c7d3d4" style=""></path></g></g></g><g display="inline"><g><polygon fill="#c7d3d4" points="7.307,16.331 10.918,10.088 14.53,16.331    " style=""></polygon></g><g><g><path d="M10.918,11.087l2.745,4.744h-5.49L10.918,11.087 M10.918,9.09l-4.479,7.741h8.958L10.918,9.09L10.918,9.09z" fill="#c7d3d4" style=""></path></g></g></g><g display="inline"><g><polygon fill="#c7d3d4" points="17.47,12.831 21.082,6.588 24.693,12.831    " style=""></polygon></g><g><path d="M21.082,7.587l2.745,4.744h-5.49L21.082,7.587 M21.082,5.59l-4.479,7.741h8.958L21.082,5.59L21.082,5.59z" fill="#c7d3d4" style=""></path></g></g><g display="inline"><g><polygon fill="#c7d3d4" points="7.307,25.91 10.918,19.667 14.53,25.91    " style=""></polygon></g><g><g><path d="M10.918,20.666l2.745,4.744h-5.49L10.918,20.666 M10.918,18.669L6.439,26.41h8.958L10.918,18.669L10.918,18.669z" fill="#c7d3d4" style=""></path></g></g></g><g display="inline"><g><polygon fill="#c7d3d4" points="17.47,22.41 21.082,16.167 24.693,22.41    " style=""></polygon></g><g><path d="M21.082,17.166l2.745,4.744h-5.49L21.082,17.166 M21.082,15.169l-4.479,7.741h8.958L21.082,15.169L21.082,15.169z" fill="#c7d3d4" style=""></path></g></g></g><g><g><path d="M0,31.984h32v-32H0V31.984z M2,1.984h28v28H2V1.984z" fill="#c7d3d4" style=""></path><polygon points="6.439,16.831 15.398,16.831 10.918,9.09   " fill="#c7d3d4" style=""></polygon><polygon points="16.602,13.331 25.561,13.331 21.082,5.59   " fill="#c7d3d4" style=""></polygon><polygon points="6.439,26.41 15.398,26.41 10.918,18.669   " fill="#c7d3d4" style=""></polygon><polygon points="16.602,22.91 25.561,22.91 21.082,15.169   " fill="#c7d3d4" style=""></polygon></g></g><desc>Created with Snap</desc><defs></defs></g><g><g transform="matrix(1.024,0,0,-1.024,0,0)"><path d="M232 102L232 255Q232 273 226 278Q221 284 203 284L129 284Q38 284 38 373L38 538Q38 626 131 626L229 626Q322 626 322 538L322 446L231 446L231 524Q231 542 225 547Q219 553 201 553L159 553Q141 553 135 547Q129 542 129 524L129 385Q129 367 135 361Q141 356 159 356L232 356Q324 356 324 268L324 88Q324 0 230 0L133 0Q40 0 40 88L40 180L131 180L131 102Q131 84 137 78Q143 73 161 73L203 73Q221 73 226 78Q232 84 232 102ZM557 488L592 488Q683 488 683 399L683 0L593 0L593 386Q593 404 587 409Q581 415 563 415L528 415Q510 415 502 407Q495 399 495 380L495 0L405 0L405 669L495 669L495 449Q508 488 557 488ZM857 488L964 488Q1057 488 1057 399L1057 88Q1057 0 964 0L857 0Q765 0 765 88L765 399Q765 488 857 488ZM968 101L968 387Q968 405 962 411Q956 417 938 417L883 417Q865 417 859 411Q854 405 854 387L854 101Q854 83 859 77Q865 71 883 71L938 71Q956 71 962 77Q968 83 968 101ZM1292 488L1327 488Q1418 488 1418 399L1418 88Q1418 0 1327 0L1292 0Q1243 0 1230 39L1230 -138L1140 -138L1140 488L1230 488L1230 449Q1243 488 1292 488ZM1328 102L1328 386Q1328 404 1322 409Q1316 415 1298 415L1263 415Q1245 415 1237 407Q1230 399 1230 380L1230 108Q1230 89 1237 81Q1245 73 1263 73L1298 73Q1316 73 1322 78Q1328 84 1328 102Z" fill="#603f83" style=""></path></g></g></g></svg>