<svg version="1.1" xmlns="http://www.w3.org/2000/svg" viewBox="-204.79999847412108 -1075.2000610351563 7949.501829926803 2685.952111816406"><desc>Created with Snap</desc><defs></defs><g><g transform="matrix(23.8727,0,0,23.8727,5169.5969,-925.8701)"><g><path d="M82.966,30.566c-6.635,0-12.033,5.398-12.033,12.033c0,0.727,0.075,1.433,0.199,2.123l-10.315,3.353   c-1.494-3.082-4.28-5.515-7.852-6.425c-0.438-0.111-0.885-0.19-1.332-0.252V30.556c5.863-0.803,10.398-5.83,10.398-11.908   c0-6.636-5.399-12.035-12.035-12.035s-12.032,5.399-12.032,12.035c0,6.078,4.534,11.105,10.396,11.908v10.843   c-4.001,0.546-7.442,3.066-9.186,6.676l-10.306-3.349c0.124-0.69,0.199-1.398,0.199-2.125c0-6.635-5.398-12.032-12.033-12.032   C10.398,30.568,5,35.966,5,42.601c0,6.636,5.398,12.035,12.034,12.035c4.756,0,8.865-2.781,10.817-6.797l10.314,3.352   c-0.729,4.059,0.688,8.077,3.507,10.794l-6.368,8.765c-1.693-0.91-3.627-1.43-5.68-1.43c-6.636,0-12.035,5.398-12.035,12.033   c0,6.636,5.399,12.035,12.035,12.035c6.635,0,12.032-5.399,12.032-12.035c0-3.405-1.429-6.479-3.71-8.67l6.377-8.774   c0.841,0.45,1.739,0.818,2.704,1.063c0.976,0.248,1.977,0.373,2.975,0.373c2.035,0,3.973-0.512,5.676-1.426l6.368,8.763   c-2.283,2.192-3.712,5.266-3.712,8.671c0,6.636,5.399,12.035,12.035,12.035c6.635,0,12.033-5.399,12.033-12.035   c0-6.635-5.398-12.033-12.033-12.033c-2.054,0-3.987,0.52-5.68,1.43l-6.365-8.76c1.579-1.517,2.761-3.469,3.332-5.709   c0.438-1.721,0.468-3.447,0.17-5.09l10.321-3.354c1.952,4.016,6.061,6.798,10.817,6.798C89.602,54.634,95,49.235,95,42.6   C95,35.965,89.602,30.566,82.966,30.566z M17.034,51.362c-4.831,0-8.761-3.931-8.761-8.762c0-4.829,3.93-8.759,8.761-8.759   c4.829,0,8.76,3.93,8.76,8.759C25.794,47.432,21.863,51.362,17.034,51.362z M38.384,81.353c0,4.831-3.93,8.762-8.759,8.762   c-4.831,0-8.762-3.931-8.762-8.762c0-4.829,3.931-8.759,8.762-8.759C34.454,72.594,38.384,76.523,38.384,81.353z M70.37,72.594   c4.829,0,8.76,3.93,8.76,8.759c0,4.831-3.931,8.762-8.76,8.762c-4.83,0-8.762-3.931-8.762-8.762   C61.608,76.523,65.54,72.594,70.37,72.594z M41.237,18.647c0-4.831,3.929-8.762,8.759-8.762c4.831,0,8.761,3.931,8.761,8.762   c0,4.829-3.93,8.759-8.761,8.759C45.166,27.406,41.237,23.477,41.237,18.647z M58.484,55.474c-0.988,3.884-4.478,6.598-8.481,6.598   c-0.728,0-1.456-0.092-2.168-0.273c-4.678-1.19-7.516-5.967-6.325-10.646c0.991-3.886,4.479-6.6,8.483-6.6   c0.727,0,1.454,0.092,2.165,0.272C56.836,46.018,59.674,50.795,58.484,55.474z M82.966,51.36c-4.829,0-8.76-3.931-8.76-8.761   s3.931-8.76,8.76-8.76c4.831,0,8.761,3.93,8.761,8.76S87.797,51.36,82.966,51.36z" fill="#e8715b" style=""></path></g><desc>Created with Snap</desc><defs></defs></g><g><g transform="matrix(1.024,0,0,-1.024,0,0)"><path d="M580 0L485 0L485 323L195 323L195 0L100 0L100 689L195 689L195 401L485 401L485 689L580 689L580 0ZM973 539Q1084 539 1145 465Q1207 391 1207 264Q1207 182 1179 119Q1151 57 1098 22Q1045 -12 972 -12Q861 -12 799 62Q737 136 737 263Q737 345 765 407Q793 470 846 504Q899 539 973 539ZM973 465Q836 465 836 263Q836 62 972 62Q1108 62 1108 264Q1108 465 973 465ZM1888 539Q1953 539 1992 495Q2031 452 2031 378L2031 0L1939 0L1939 365Q1939 467 1865 467Q1826 467 1799 444Q1772 422 1741 374L1741 0L1649 0L1649 365Q1649 467 1575 467Q1535 467 1508 444Q1481 421 1451 374L1451 0L1359 0L1359 527L1438 527L1446 450Q1505 539 1598 539Q1647 539 1681 514Q1716 489 1731 444Q1762 490 1799 514Q1837 539 1888 539ZM2614 279Q2614 256 2612 232L2276 232Q2282 145 2320 104Q2358 63 2418 63Q2456 63 2488 74Q2520 85 2555 109L2595 54Q2511 -12 2411 -12Q2301 -12 2239 60Q2178 132 2178 258Q2178 340 2204 403Q2231 467 2280 503Q2330 539 2397 539Q2502 539 2558 470Q2614 401 2614 279ZM2523 300L2523 306Q2523 384 2492 425Q2461 466 2399 466Q2286 466 2276 300L2523 300ZM3275 527L3363 527L3243 0L3118 0L3026 444L2931 0L2809 0L2686 527L2778 527L2873 64L2977 527L3080 527L3179 64L3275 527ZM3676 539Q3787 539 3848 465Q3910 391 3910 264Q3910 182 3882 119Q3854 57 3801 22Q3748 -12 3675 -12Q3564 -12 3502 62Q3440 136 3440 263Q3440 345 3468 407Q3496 470 3549 504Q3602 539 3676 539ZM3676 465Q3539 465 3539 263Q3539 62 3675 62Q3811 62 3811 264Q3811 465 3676 465ZM4291 539Q4319 539 4343 533L4326 443Q4302 449 4280 449Q4231 449 4201 413Q4171 377 4154 301L4154 0L4062 0L4062 527L4141 527L4150 420Q4171 479 4207 509Q4243 539 4291 539ZM4448 739L4540 750L4540 0L4448 0L4448 739ZM4740 527L4843 527L4649 294L4865 0L4755 0L4546 288L4740 527Z" fill="#072a55" style=""></path></g></g><g transform="matrix(1,0,0,1,2680.8322,1085.4401)"><g transform="matrix(1.024,0,0,-1.024,0,0)"><path d="M270 701Q339 701 388 681Q437 662 483 621L431 563Q392 594 354 608Q317 623 274 623Q220 623 185 598Q150 573 150 525Q150 495 162 474Q174 454 206 437Q239 420 301 401Q366 381 409 358Q452 335 478 294Q505 254 505 192Q505 132 475 86Q446 40 390 14Q335 -12 259 -12Q116 -12 25 77L77 135Q119 101 162 83Q205 66 258 66Q322 66 364 97Q406 129 406 189Q406 223 393 245Q380 268 348 286Q317 304 257 322Q151 354 102 399Q53 444 53 521Q53 573 80 614Q108 655 157 678Q207 701 270 701ZM888 539Q960 539 1000 496Q1041 453 1041 378L1041 0L949 0L949 365Q949 421 927 444Q906 467 865 467Q824 467 792 443Q760 419 732 375L732 0L640 0L640 738L732 748L732 454Q794 539 888 539ZM1424 539Q1535 539 1596 465Q1658 391 1658 264Q1658 182 1630 119Q1602 57 1549 22Q1496 -12 1423 -12Q1312 -12 1250 62Q1188 136 1188 263Q1188 345 1216 407Q1244 470 1297 504Q1350 539 1424 539ZM1424 465Q1287 465 1287 263Q1287 62 1423 62Q1559 62 1559 264Q1559 465 1424 465ZM2052 539Q2153 539 2200 467Q2247 395 2247 264Q2247 140 2193 64Q2139 -12 2040 -12Q1952 -12 1902 48L1902 -202L1810 -213L1810 527L1889 527L1896 456Q1925 496 1966 517Q2007 539 2052 539ZM2018 63Q2148 63 2148 264Q2148 466 2029 466Q1990 466 1958 443Q1926 420 1902 384L1902 127Q1922 96 1952 79Q1982 63 2018 63Z" fill="#072a55" style=""></path></g></g></g></svg>